<?xml version="1.0" encoding="UTF-8" standalone="no"?>
<!-- Created with Inkscape (http://www.inkscape.org/) -->

<svg
   xmlns:dc="http://purl.org/dc/elements/1.1/"
   xmlns:cc="http://creativecommons.org/ns#"
   xmlns:rdf="http://www.w3.org/1999/02/22-rdf-syntax-ns#"
   xmlns:svg="http://www.w3.org/2000/svg"
   xmlns="http://www.w3.org/2000/svg"
   xmlns:sodipodi="http://sodipodi.sourceforge.net/DTD/sodipodi-0.dtd"
   xmlns:inkscape="http://www.inkscape.org/namespaces/inkscape"
   width="169.33333mm"
   height="169.33333mm"
   viewBox="0 0 169.33333 169.33333"
   version="1.1"
   id="svg8"
   inkscape:version="0.92.2 5c3e80d, 2017-08-06"
   sodipodi:docname="dead_canary_logo.svg">
  <defs
     id="defs2" />
  <sodipodi:namedview
     id="base"
     pagecolor="#ffffff"
     bordercolor="#666666"
     borderopacity="1.0"
     inkscape:pageopacity="0.0"
     inkscape:pageshadow="2"
     inkscape:zoom="0.7"
     inkscape:cx="1044.5958"
     inkscape:cy="320.6746"
     inkscape:document-units="mm"
     inkscape:current-layer="layer1"
     showgrid="false"
     inkscape:window-width="3360"
     inkscape:window-height="1841"
     inkscape:window-x="0"
     inkscape:window-y="1"
     inkscape:window-maximized="1" />
  <metadata
     id="metadata5">
    <rdf:RDF>
      <cc:Work
         rdf:about="">
        <dc:format>image/svg+xml</dc:format>
        <dc:type
           rdf:resource="http://purl.org/dc/dcmitype/StillImage" />
        <dc:title></dc:title>
      </cc:Work>
    </rdf:RDF>
  </metadata>
  <g
     inkscape:label="Layer 1"
     inkscape:groupmode="layer"
     id="layer1"
     transform="translate(-25.702377,-28.636909)"
     style="display:none">
    <circle
       id="path3758"
       cx="110.36904"
       cy="113.30357"
       r="84.666664"
       style="stroke-width:0.26458332" />
  </g>
  <g
     inkscape:groupmode="layer"
     id="layer2"
     inkscape:label="Cannary">
    <g
       transform="translate(-25.702377,-28.63691)"
       style=""
       id="g3816">
      <path
         style="fill:#ffd700;stroke-width:0.1194589"
         inkscape:connector-curvature="0"
         d="m 43.517977,94.024427 c 0.0118,0.61668 -0.09331,1.46924 -0.0729,2.09442 0.059,1.50389 0.118399,3.09222 0.270332,4.605053 0.0717,0.74372 0.101346,1.52944 0.257396,2.25673 0.208033,0.96409 0.539482,1.32914 0.0293,2.24703 -0.74439,1.33896 -0.85455,2.80811 -0.643621,4.29593 0.957,6.5854 7.349681,12.42364 13.199834,14.84635 3.208677,1.32695 6.750416,1.77726 10.170991,1.70319 1.553998,-0.0421 2.963507,-0.24553 4.439195,-0.70197 4.865584,-1.50208 4.404553,0.67468 9.581369,2.00404 1.674863,0.43156 14.643311,2.41202 16.595491,2.58327 3.667726,0.3243 7.437026,0.68295 11.136056,0.55128 2.00995,-0.0734 4.0115,-0.13837 6.04713,-0.1525 0.76863,-0.004 1.51087,-0.20284 2.27103,-0.21554 0.76864,-0.004 1.43806,0.37958 2.17357,0.49344 3.31426,0.55887 6.66586,0.23101 10.01122,0.30013 3.26927,0.0602 16.202,0.15685 17.42735,0.25653 1.19996,0.0911 2.34877,0.0974 3.55759,0.26456 0.86227,0.12301 2.75638,0.48822 3.28348,-0.42959 -0.0933,-0.0765 0.19947,-0.59018 0.0893,-0.64993 2.44977,0.0304 4.39512,0.49726 6.82883,0.6796 -0.11096,-0.21179 -0.0355,-0.30428 -0.33163,-0.39881 0.62499,-0.0135 23.19826,2.09596 24.04204,1.93167 0.75101,-0.13947 1.94995,-0.23421 2.53892,-0.65331 -0.57765,-0.59448 -1.68429,-0.60901 -2.47906,-0.74854 -0.44812,-0.0785 -0.90474,-0.16548 -1.36956,-0.21028 -0.43943,-0.0362 -0.98789,0.0706 -1.4195,-0.0754 0.43049,-0.0567 0.5803,-0.46137 0.27509,-0.66578 -0.16957,-0.11922 -0.63322,0.0556 -0.81065,0.0462 -0.56619,-0.0453 -1.24281,-0.20112 -1.85146,-0.28895 -1.30189,-0.193 -18.76235,-1.86034 -23.66036,-4.70859 -1.41518,-0.82715 -3.03973,-1.32603 -4.472,-2.18706 -1.45776,-0.8865 -2.84101,-2.05135 -4.21504,-3.07255 -1.48425,-1.09783 -3.00147,-2.04379 -4.53622,-3.10811 -1.41602,-0.9792 -3.08388,-1.67258 -4.34851,-2.76921 0.66691,-0.0723 1.37104,0.48059 1.96365,0.72037 -0.31771,-0.93937 -1.21711,-1.67075 -1.9978,-2.31701 -0.67887,-0.56121 -2.0747,-0.94905 -2.48437,-1.71152 0.56546,-0.0898 1.98719,0.39106 2.37277,-0.14742 -0.31458,-0.36492 -0.97371,-0.41926 -1.41435,-0.67509 -0.47454,-0.27292 -0.88204,-0.64682 -1.36478,-0.87755 0.21093,-0.0411 0.45605,-0.0144 0.67605,0.0544 -0.56892,-0.53527 -1.21181,-0.70777 -1.73842,-1.23438 0.21963,0.001 0.29486,-0.14197 0.43823,-0.18342 -0.17875,-0.24592 -0.63619,-0.48497 -1.13565,-0.682 0.23336,-0.57311 0.40727,-1.20567 0.36993,-1.84784 -0.0287,-0.61677 -0.35205,-1.0409 -0.52426,-1.63313 -0.17229,-0.60913 -0.31099,-1.25186 -0.44949,-1.8608 -0.2855,-1.22636 -0.55393,-2.418853 -0.68767,-3.695063 -0.13345,-1.22554 -0.37742,-2.57839 -0.30833,-3.8366 0.046,-0.84444 0.21013,-1.722 0.30675,-2.58306 0.0484,-0.40518 0.18146,-0.793 0.23831,-1.20659 0.0486,-0.37139 -0.055,-0.77742 0.0613,-1.13153 0.11581,1.09028 0.90796,2.28565 1.26833,3.30126 0.16296,0.44859 0.0405,1.21658 0.49859,1.57388 0.39025,0.30624 1.0481,0.12403 1.51367,0.30397 0.55872,0.22271 1.51637,0.79392 3.31287,0.30546 1.14704,-0.31466 2.39089,-1.45659 2.84089,-2.5691 0.3,-0.74167 0.79284,-1.74414 0.80545,-2.52118 -2.4922,4.53069 -4.70769,4.09614 -5.80898,3.51569 0.77611,-0.18157 0.59021,-1.72837 0.0314,-1.96796 -0.37251,-0.1541 -0.92853,0.11314 -1.27585,-0.0662 -0.33031,-0.16231 -0.33348,-0.73672 -0.54648,-1.06732 -0.2301,-0.36445 -0.51894,-0.67017 -0.63953,-1.09317 -0.12918,-0.44841 -0.21505,-0.70229 -0.4538,-1.10905 -0.45185,-0.75426 -0.87727,-1.3141 -1.21123,-2.135287 0.5646,-0.241851 0.43041,-1.602538 0.57266,-1.846716 0.14223,-0.244192 0.1066,-0.582253 0.20647,-0.852 0.11659,-0.303448 0.25967,-0.395577 0.45252,-0.656365 0.21792,-0.302911 0.58414,-1.297604 0.69241,-1.575752 0.0748,-0.210758 0.0396,-0.481257 0.13974,-0.700318 0.62398,-0.199291 1.87996,-2.20273 2.04574,-2.776201 0.98818,-0.0199 1.14223,-1.193143 0.38822,-1.594327 0.43626,-0.538221 0.84805,-0.916078 1.55737,-0.96281 0.50664,-0.03099 1.13182,-0.01066 1.61429,0.169386 -0.88258,-2.277079 -4.35414,-0.725085 -5.09761,0.782813 -0.41761,0.85929 -0.70735,1.930444 -1.21792,2.780759 -0.50218,0.841931 -0.95087,2.190955 -1.9119,2.540429 0.32705,-0.429008 0.50134,-0.993973 0.82822,-1.456746 0.32696,-0.445903 0.62035,-0.858171 0.68466,-1.449093 0.0642,-0.607829 0.4513,-0.875991 0.79481,-1.389359 0.29326,-0.42917 0.40023,-0.943846 0.67653,-1.390009 0.2846,-0.471456 0.76379,-0.882724 1.08237,-1.320196 0.35208,-0.487981 0.56995,-0.807757 1.07511,-1.109047 0.41256,-0.242686 1.01003,-0.653296 0.93078,-1.236567 -0.0525,-0.338168 -0.51315,-1.151602 -0.81016,-1.398206 0.52009,-0.655997 2.42385,-1.608441 3.19706,-0.784832 -0.18909,-0.592329 -0.8503,-1.018311 -1.54288,-1.005237 -0.75165,0.0212 -1.21518,0.212924 -1.73648,0.649288 -0.47924,0.411217 -1.07648,0.855655 -1.51286,1.376956 -0.38601,0.45404 -0.86543,0.831486 -1.14958,1.387393 -0.56798,1.162546 -1.1116,2.147836 -1.97584,3.198937 -0.87263,1.059492 -0.95115,2.140263 -1.4089,3.37944 -0.19974,0.539493 -0.45867,1.070219 -0.75168,1.550084 -0.22474,-0.930398 -0.8235,-0.756329 -1.51813,-1.114917 -0.37271,-0.187879 -0.43318,-0.433174 -0.5198,-0.822209 -0.0345,-0.135348 -0.0605,-0.245289 -0.10322,-0.338436 0.31194,-0.108096 0.63246,-0.190805 0.9191,-0.290585 2.25126,-0.739358 3.30489,-2.676351 3.19729,-3.808818 -0.25135,0.370284 -1.23556,2.645513 -3.14232,3.057325 -0.30373,0.0659 -0.75941,0.147856 -1.18971,0.238402 0.29077,-0.885327 0.049,-1.832708 -1.04041,-1.796483 0.2929,-0.49675 0.20619,-0.902679 0.63444,-1.364893 0.40305,-0.437001 1.06902,-0.678307 1.57818,-0.253159 -0.0873,-0.507292 -1.03401,-0.630766 -1.46411,-0.506429 -0.56508,0.157373 -1.09441,0.669714 -1.4126,1.174773 -0.3266,0.513458 -0.40735,1.188766 -0.33623,1.831123 -0.54016,0.08149 -1.18046,0.38205 -1.66303,0.185114 -0.94813,-0.376887 -2.77531,-0.859976 -3.03525,-2.04397 -0.1301,-0.617347 -0.88539,-1.255023 -1.30205,-1.75569 -0.42522,-0.526056 -1.00225,-1.002253 -1.51953,-1.368321 -0.52577,-0.374563 -0.59633,-0.915549 -0.31257,-1.539061 0.15018,-0.337042 0.37811,-0.36114 0.18146,-0.793007 -0.11119,-0.245541 -0.57749,-0.560659 -0.78079,-0.663129 0.86433,-1.034209 2.5519,-1.36278 3.68642,-0.883495 -1.26212,-0.640484 -2.76113,-1.349831 -4.01384,-0.283982 -0.32323,-0.407232 -0.0752,-1.385702 -0.12887,-1.926603 -0.0713,-0.676143 0.0266,-1.300674 0.2343,-1.933047 0.216,-0.657665 0.83886,-1.059684 0.98746,-1.683932 0.14039,-0.582062 -0.44773,-1.539803 -1.06943,-0.935083 -0.0593,-0.0088 -0.0932,-0.04271 -0.10192,-0.101921 0.82793,-1.507433 2.48164,-3.381973 4.18545,-3.828715 -1.33493,-0.05803 -2.41319,0.476617 -3.37169,1.282239 -1.00891,0.856024 -1.96677,1.7799 -2.45018,2.959808 -0.12499,0.311848 -0.36861,0.555468 -0.48529,0.842008 -0.13329,0.337149 0.0958,0.532685 0.10603,0.845276 0.0116,0.566004 -0.23094,1.012358 -0.12622,1.621113 0.0351,0.236696 0.0702,0.473408 0.0968,0.70162 -0.67687,-0.206454 -1.37721,-0.06672 -1.93929,0.631275 -0.82224,1.009098 -0.0464,2.305749 0.60021,3.154001 0.85925,1.111282 2.09683,1.895215 2.5606,3.283055 0.18042,0.55005 0.1161,1.140979 0.37222,1.632306 0.31594,0.618357 0.74828,0.89949 0.90433,1.626783 0.54665,2.63 1.31339,5.345678 2.05417,7.951406 0.39621,1.387466 0.44669,2.882848 0.84271,4.236531 0.37883,1.30291 0.53022,2.71437 0.95964,4.00067 0.27497,0.84619 0.38052,1.60701 0.5543,2.48644 0.0781,0.38054 0.24912,0.75314 0.36102,1.13387 0.14654,0.53296 0.0538,0.55778 -0.36692,0.85956 -0.63947,0.45261 -1.39739,0.87077 -1.9859,1.37435 -0.1429,0.12593 -0.27739,0.24344 -0.41188,0.36096 -12.31032,-8.24442 -15.45434,-8.56584 -18.27297,-9.62033 -1.557432,-0.58297 -12.249712,-3.378692 -20.567803,-1.46485 -3.306998,0.75889 -6.584331,2.30351 -9.260938,4.02881 -1.472992,0.94639 -2.870002,1.88474 -4.180499,3.19523 -1.327293,1.3273 -2.613791,2.39297 -4.09463,3.44911 -1.379841,0.98914 -2.731564,0.9479 -4.351372,1.31063 -1.611401,0.35434 -3.101452,-0.26205 -4.681482,-0.34677 -0.811117,-0.0383 -1.613549,-0.0342 -2.424758,-0.0894 -0.938054,-0.0812 -1.278171,-0.48851 -2.024402,-1.01633 -0.678387,-0.47677 -1.298427,-1.09681 -2.027117,-1.50628 -0.660914,-0.3753 -1.473054,-0.59939 -2.109063,-1.05059 -0.602121,-0.4341 -1.759591,-2.01161 -1.725261,-0.38117 z M 114.52705,67.250528 c -0.0512,-0.101687 -0.26284,-0.178835 -0.28038,-0.297206 -0.0265,-0.211312 0.19314,-0.2101 0.22607,-0.361975 0.0898,-0.565444 -0.36839,-0.939632 -0.90033,-0.900331 0.20909,-0.378959 0.71545,-0.460638 1.23086,-0.432451 0.0544,0.67605 0.075,1.351909 0.11273,2.061667 0.01,0.21122 0.0781,0.380537 0.0371,0.591474 -0.20346,-0.136282 -0.31511,-0.466309 -0.42599,-0.661201 z m 10.24684,30.794699 c 0.14047,-0.56516 0.50087,-1.07844 0.54809,-1.70325 0.0464,-0.77686 -0.2688,-1.26007 -0.6019,-1.92921 -0.64915,-1.3044 -0.79978,-2.58071 -1.1285,-3.98471 -0.27683,-1.18409 -0.86579,-2.29387 -1.18479,-3.46975 -0.46545,-1.691938 -0.74554,-3.467333 -0.8396,-5.207904 -0.0928,-1.520959 -0.69337,-3.196752 0.15267,-4.484464 0.44084,0.289616 1.38394,-0.245784 2.27708,0.882583 0.47627,0.593933 0.76564,0.984052 1.56752,0.878665 0.26163,-0.04079 0.62471,-0.06413 0.86068,-0.164198 0.059,-0.02503 0.10953,-0.05848 0.15162,-0.08359 0.0341,0.05091 0.0682,0.101689 0.11064,0.144157 0.48461,0.568614 0.82714,1.415196 1.16017,2.067445 0.444,0.864021 1.36104,1.730658 1.12161,2.734521 -0.2721,1.206402 -1.01911,2.072318 -0.8177,3.365805 0.0875,0.55797 0.45399,1.14282 0.49896,1.64144 0.018,0.20283 -0.11565,0.47239 -0.11425,0.7258 -0.007,0.3125 0.0881,0.65935 0.12366,0.98052 0.1244,1.11568 0.31638,2.23173 0.38189,3.38932 0.0739,1.14917 0.23866,6.522313 0.40722,7.984553 0.0624,0.60006 0.28644,1.3953 0.20532,2.00303 -0.0406,0.29543 -0.24194,0.54772 -0.48556,0.79134 -1.40016,-1.16494 -3.14707,-2.40782 -4.62256,-3.44646 -0.11875,-0.0851 -0.22894,-0.16176 -0.34769,-0.24685 0.34135,-0.90195 0.37731,-2.042093 0.57547,-2.868783 z"
         id="path3746" />
      <text
         transform="scale(1.2214552,0.8186956)"
         id="text3762"
         y="138.81944"
         x="38.376316"
         style="font-style:normal;font-weight:normal;font-size:7.24064445px;line-height:1.25;font-family:sans-serif;letter-spacing:0px;word-spacing:0px;fill:#000000;fill-opacity:1;stroke:none;stroke-width:0.18101612"
         xml:space="preserve"><tspan
           style="font-style:normal;font-variant:normal;font-weight:bold;font-stretch:normal;font-size:12.06774139px;font-family:Monaco;-inkscape-font-specification:'Monaco Bold';stroke-width:0.18101612"
           y="138.81944"
           x="38.376316"
           id="tspan3760"
           sodipodi:role="line">X</tspan></text>
      <circle
         style="stroke-width:0.26458332"
         r="2.1381562"
         cy="109.91133"
         cx="51.315762"
         id="path3764" />
    </g>
  </g>
</svg>
